# Blender 4.1.1
# www.blender.org
mtllib item_pipe_straight.mtl
o Cube
v -3.520000 -3.520000 -8.000000
v -3.520000 3.520000 -8.000000
v 3.520000 -3.520000 -8.000000
v 3.520000 3.520000 -8.000000
v -3.520000 -3.520000 -7.000000
v -2.880000 -2.880000 -7.000000
v -2.880000 2.880000 -7.000000
v -3.520000 3.520000 -7.000000
v 2.880000 -2.880000 -7.000000
v 3.520000 -3.520000 -7.000000
v 3.520000 3.520000 -7.000000
v 2.880000 2.880000 -7.000000
v -2.880000 -2.880000 0.000000
v -2.880000 2.880000 0.000000
v 2.880000 -2.880000 0.000000
v 2.880000 2.880000 0.000000
v -3.520000 -3.520000 8.000000
v -3.520000 3.520000 8.000000
v 3.520000 -3.520000 8.000000
v 3.520000 3.520000 8.000000
v -3.520000 -3.520000 7.000000
v -2.880000 -2.880000 7.000000
v -2.880000 2.880000 7.000000
v -3.520000 3.520000 7.000000
v 2.880000 -2.880000 7.000000
v 3.520000 -3.520000 7.000000
v 3.520000 3.520000 7.000000
v 2.880000 2.880000 7.000000
vn -1.0000 -0.0000 -0.0000
vn -0.0000 -0.0000 -1.0000
vn -0.0000 1.0000 -0.0000
vn -0.0000 -0.0000 1.0000
vn -0.0000 -1.0000 -0.0000
vn 1.0000 -0.0000 -0.0000
vt 0.375000 0.200000
vt 0.625000 0.200000
vt 0.625000 0.250000
vt 0.375000 0.250000
vt 0.625000 0.500000
vt 0.375000 0.500000
vt 0.875000 0.500000
vt 0.875000 0.550000
vt 0.625000 0.550000
vt 0.875000 0.600000
vt 0.625000 0.600000
vt 0.125000 0.500000
vt 0.375000 0.550000
vt 0.125000 0.550000
vt 0.375000 0.600000
vt 0.125000 0.600000
vt 0.375000 0.125000
vt 0.625000 0.125000
vt 0.625000 0.150000
vt 0.375000 0.150000
vt 0.625000 0.625000
vt 0.375000 0.625000
vt 0.125000 0.625000
vt 0.875000 0.625000
s 0
f 5/1/1 8/2/1 2/3/1 1/4/1
f 1/4/2 2/3/2 4/5/2 3/6/2
f 4/5/3 2/7/3 8/8/3 11/9/3
f 11/9/4 8/8/4 7/10/4 12/11/4
f 1/12/5 3/6/5 10/13/5 5/14/5
f 5/14/4 10/13/4 9/15/4 6/16/4
f 3/6/6 4/5/6 11/9/6 10/13/6
f 10/13/4 11/9/4 12/11/4 9/15/4
f 13/17/1 14/18/1 7/19/1 6/20/1
f 6/20/4 7/19/4 8/2/4 5/1/4
f 9/15/6 12/11/6 16/21/6 15/22/6
f 6/16/5 9/15/5 15/22/5 13/23/5
f 12/11/3 7/10/3 14/24/3 16/21/3
f 21/1/1 17/4/1 18/3/1 24/2/1
f 17/4/4 19/6/4 20/5/4 18/3/4
f 20/5/3 27/9/3 24/8/3 18/7/3
f 27/9/2 28/11/2 23/10/2 24/8/2
f 17/12/5 21/14/5 26/13/5 19/6/5
f 21/14/2 22/16/2 25/15/2 26/13/2
f 19/6/6 26/13/6 27/9/6 20/5/6
f 26/13/2 25/15/2 28/11/2 27/9/2
f 13/17/1 22/20/1 23/19/1 14/18/1
f 22/20/2 21/1/2 24/2/2 23/19/2
f 25/15/6 15/22/6 16/21/6 28/11/6
f 22/16/5 13/23/5 15/22/5 25/15/5
f 28/11/3 16/21/3 14/24/3 23/10/3
